<svg enable-background="new 0 0 400 400" viewBox="0 0 400 400"
    xmlns="http://www.w3.org/2000/svg">
    <rect width="400" height="400" fill="#FF0000" />
    <g fill="#FFFFFF">
        <path d="m134.71 136.35c6.15 0 12.3-.17 18.44.04 11.48.39 19.45 6.02 24.43 16.4 5.01 10.45 6.74 21.52 6.67 32.89-.1 15.24-1.56 30.35-5.21 45.21-4.26 17.38-15.67 27.43-32.69 31.06-15.24 3.25-29.76 0-43.57-6.81-.86-.43-1.59-1.22-2.24-1.97-2.21-2.53-4.14-5.33-6.56-7.63-8.52-8.09-11.79-18.55-13.44-29.63-3.08-20.76-.3-40.91 6.24-60.78 2.71-8.23 8.52-12.31 15.84-14.95 10.34-3.74 21.21-4.2 32.09-3.83zm34.69 53.2c.01-9.63.79-18.81-2.03-27.69-1.44-4.53-3.93-8.25-9.6-8.2-1.75.02-3.5-.67-5.25-.99-4.44-.81-8.88-1.59-13.43-2.4v39.28zm-30.38 58.04c6.08.28 11.36-1.33 16.09-4.92 11.11-8.4 13.43-20.48 14-33.28.11-2.48-1.27-3.43-3.79-3.46-6.7-.09-13.41-.42-20.11-.62-2.06-.06-4.12-.01-6.2-.01.01 14.29.01 28.25.01 42.29zm-15.62-96.36c-2.47 0-4.45-.01-6.43 0-9.81.05-16.67 4.8-19.5 14-2.33 7.61-4.22 15.37-2.36 23.41.2.88 1.39 2.22 2.07 2.19 8.8-.38 17.59-.97 26.22-1.5 0-12.8 0-25.27 0-38.1zm-26.73 53.61c-1.21 14.6 3.08 27.26 13.46 37.74.69.7 1.47 1.57 2.34 1.78 3.67.87 7.39 1.51 10.92 2.21 0-13.89 0-27.57 0-41.73-9.15 0-17.8 0-26.72 0z"/>
        <path d="m195.59 101.51c-1.72 0-2.94 0-4.16 0-28.44.04-56.87.1-85.31.08-3.79 0-7.59-.41-11.37-.77-1.19-.11-2.41-.56-3.47-1.12-2.77-1.47-3.19-4-3.05-6.88.13-2.76 2.41-2.72 4.04-3.17 11.57-3.19 23.45-3.07 35.32-2.98 21.49.15 42.98.24 64.47.45 2.36.02 2.85-.91 3.24-3.07 2.47-13.83.12-27.71.6-41.55.22-6.35 2.08-11.9 6.03-17.01 3.34 1.84 5.21 4.91 5.94 8.38.99 4.67 1.75 9.48 1.85 14.24.16 7.6-.37 15.21-.5 22.81-.09 5.22-.02 10.45-.02 16.15h4.88c25.64 0 51.28-.05 76.91.04 5.46.02 10.93.5 16.38.95 1.26.1 2.59.76 3.66 1.49 4.32 2.98 4.31 7.57-.49 9.34-4.39 1.62-9.28 2.56-13.96 2.6-23.62.18-47.24-.03-70.86-.09-3.68-.01-7.39-.19-11.04.16-4.82.46-5.88 1.88-5.88 6.63 0 82.27.04 164.54-.09 246.81-.01 6.54-1.24 13.07-1.92 19.8-2.97 0-5.47 0-8.41 0-.92-91.02-1.85-181.95-2.79-273.29z"/>
        <path d="m289.65 142.91c1.53-4.58.66-8.95-.34-13.33-1.46-6.41.45-11.43 5.81-15.61 4.58 1.8 7.08 4.9 7.28 10.1.38 10.05 1.46 20.08 1.66 30.14.22 10.71-1.55 21.31-5.7 31.16-2.75 6.53-8.25 11.14-15.33 12.99-6.46 1.69-13.07 2.85-19.9 4.3.22 3.7.43 7.24.65 10.79 1.5 24.8 2.98 49.6 4.53 74.4.12 1.87.55 3.76 1.12 5.55 6.5 20.33 13.08 40.63 19.55 60.98.87 2.75 1.35 5.65 1.74 8.52.41 3.05-1.38 4.76-4.12 5.69-2.54.86-4.59.44-5.97-2.05-1.41-2.54-3.18-4.92-4.22-7.6-4.67-12.08-9.23-24.21-13.66-36.38-5.04-13.86-7.04-28.39-9.03-42.91-1.26-9.2-3.03-18.35-3.76-27.59-.74-9.45-.55-18.97-.62-28.46-.04-5.37.01-10.76.44-16.11.26-3.24-1.25-4.36-3.92-4.41-4.02-.07-8.04.16-12.06.27-3.12.09-6.26.53-9.34.23-4.65-.45-8.02-4.91-7.45-9.55.1-.85 1.1-1.86 1.94-2.31 5.63-3.03 11.73-4.5 18.08-4.27 7.82.28 15.61 1.14 23.43 1.43 9.2.35 17.48-2.17 24.13-8.89.62-.63 1.45-1.32 1.6-2.09 1.22-6.45 2.31-12.93 3.55-20.06-6.1 0-11.67.05-17.24-.01-14.77-.16-29.54-.34-44.31-.59-2.11-.04-4.26-.26-6.3-.78-4.55-1.14-6.04-3.8-4.48-8.27.41-1.17 1.84-2.47 3.05-2.8 9.6-2.62 19.44-2.65 29.31-2.52 13.22.17 26.42.04 39.88.04z"/>
    </g>
</svg>