<?xml version="1.0" encoding="UTF-8" standalone="no"?>
<svg
   enable-background="new 0 0 400 400"
   viewBox="0 0 24 24"
   version="1.1"
   id="svg3"
   sodipodi:docname="icon.svg"
   width="24"
   height="24"
   inkscape:version="1.4 (86a8ad7, 2024-10-11)"
   xmlns:inkscape="http://www.inkscape.org/namespaces/inkscape"
   xmlns:sodipodi="http://sodipodi.sourceforge.net/DTD/sodipodi-0.dtd"
   xmlns="http://www.w3.org/2000/svg"
   xmlns:svg="http://www.w3.org/2000/svg">
  <defs
     id="defs3" />
  <sodipodi:namedview
     id="namedview3"
     pagecolor="#ffffff"
     bordercolor="#999999"
     borderopacity="1"
     inkscape:showpageshadow="0"
     inkscape:pageopacity="0"
     inkscape:pagecheckerboard="0"
     inkscape:deskcolor="#d1d1d1"
     showgrid="false"
     inkscape:zoom="15.994755"
     inkscape:cx="13.91081"
     inkscape:cy="14.629795"
     inkscape:window-width="2131"
     inkscape:window-height="1302"
     inkscape:window-x="251"
     inkscape:window-y="16"
     inkscape:window-maximized="0"
     inkscape:current-layer="svg3" />
  <rect
     width="24"
     height="24"
     fill="#ff0000"
     id="rect1"
     x="0"
     y="0"
     style="stroke-width:0.06" />
  <g
     fill="#ffffff"
     id="g3"
     transform="scale(0.06)">
    <path
       d="m 134.71,136.35 c 6.15,0 12.3,-0.17 18.44,0.04 11.48,0.39 19.45,6.02 24.43,16.4 5.01,10.45 6.74,21.52 6.67,32.89 -0.1,15.24 -1.56,30.35 -5.21,45.21 -4.26,17.38 -15.67,27.43 -32.69,31.06 -15.24,3.25 -29.76,0 -43.57,-6.81 -0.86,-0.43 -1.59,-1.22 -2.24,-1.97 -2.21,-2.53 -4.14,-5.33 -6.56,-7.63 -8.52,-8.09 -11.79,-18.55 -13.44,-29.63 -3.08,-20.76 -0.3,-40.91 6.24,-60.78 2.71,-8.23 8.52,-12.31 15.84,-14.95 10.34,-3.74 21.21,-4.2 32.09,-3.83 z m 34.69,53.2 c 0.01,-9.63 0.79,-18.81 -2.03,-27.69 -1.44,-4.53 -3.93,-8.25 -9.6,-8.2 -1.75,0.02 -3.5,-0.67 -5.25,-0.99 -4.44,-0.81 -8.88,-1.59 -13.43,-2.4 v 39.28 z m -30.38,58.04 c 6.08,0.28 11.36,-1.33 16.09,-4.92 11.11,-8.4 13.43,-20.48 14,-33.28 0.11,-2.48 -1.27,-3.43 -3.79,-3.46 -6.7,-0.09 -13.41,-0.42 -20.11,-0.62 -2.06,-0.06 -4.12,-0.01 -6.2,-0.01 0.01,14.29 0.01,28.25 0.01,42.29 z M 123.4,151.23 c -2.47,0 -4.45,-0.01 -6.43,0 -9.81,0.05 -16.67,4.8 -19.5,14 -2.33,7.61 -4.22,15.37 -2.36,23.41 0.2,0.88 1.39,2.22 2.07,2.19 8.8,-0.38 17.59,-0.97 26.22,-1.5 0,-12.8 0,-25.27 0,-38.1 z m -26.73,53.61 c -1.21,14.6 3.08,27.26 13.46,37.74 0.69,0.7 1.47,1.57 2.34,1.78 3.67,0.87 7.39,1.51 10.92,2.21 0,-13.89 0,-27.57 0,-41.73 -9.15,0 -17.8,0 -26.72,0 z"
       id="path1" />
    <path
       d="m 195.59,101.51 c -1.72,0 -2.94,0 -4.16,0 -28.44,0.04 -56.87,0.1 -85.31,0.08 -3.79,0 -7.59,-0.41 -11.37,-0.77 -1.19,-0.11 -2.41,-0.56 -3.47,-1.12 -2.77,-1.47 -3.19,-4 -3.05,-6.88 0.13,-2.76 2.41,-2.72 4.04,-3.17 11.57,-3.19 23.45,-3.07 35.32,-2.98 21.49,0.15 42.98,0.24 64.47,0.45 2.36,0.02 2.85,-0.91 3.24,-3.07 2.47,-13.83 0.12,-27.71 0.6,-41.55 0.22,-6.35 2.08,-11.9 6.03,-17.01 3.34,1.84 5.21,4.91 5.94,8.38 0.99,4.67 1.75,9.48 1.85,14.24 0.16,7.6 -0.37,15.21 -0.5,22.81 -0.09,5.22 -0.02,10.45 -0.02,16.15 h 4.88 c 25.64,0 51.28,-0.05 76.91,0.04 5.46,0.02 10.93,0.5 16.38,0.95 1.26,0.1 2.59,0.76 3.66,1.49 4.32,2.98 4.31,7.57 -0.49,9.34 -4.39,1.62 -9.28,2.56 -13.96,2.6 -23.62,0.18 -47.24,-0.03 -70.86,-0.09 -3.68,-0.01 -7.39,-0.19 -11.04,0.16 -4.82,0.46 -5.88,1.88 -5.88,6.63 0,82.27 0.04,164.54 -0.09,246.81 -0.01,6.54 -1.24,13.07 -1.92,19.8 -2.97,0 -5.47,0 -8.41,0 -0.92,-91.02 -1.85,-181.95 -2.79,-273.29 z"
       id="path2" />
    <path
       d="m 289.65,142.91 c 1.53,-4.58 0.66,-8.95 -0.34,-13.33 -1.46,-6.41 0.45,-11.43 5.81,-15.61 4.58,1.8 7.08,4.9 7.28,10.1 0.38,10.05 1.46,20.08 1.66,30.14 0.22,10.71 -1.55,21.31 -5.7,31.16 -2.75,6.53 -8.25,11.14 -15.33,12.99 -6.46,1.69 -13.07,2.85 -19.9,4.3 0.22,3.7 0.43,7.24 0.65,10.79 1.5,24.8 2.98,49.6 4.53,74.4 0.12,1.87 0.55,3.76 1.12,5.55 6.5,20.33 13.08,40.63 19.55,60.98 0.87,2.75 1.35,5.65 1.74,8.52 0.41,3.05 -1.38,4.76 -4.12,5.69 -2.54,0.86 -4.59,0.44 -5.97,-2.05 -1.41,-2.54 -3.18,-4.92 -4.22,-7.6 -4.67,-12.08 -9.23,-24.21 -13.66,-36.38 -5.04,-13.86 -7.04,-28.39 -9.03,-42.91 -1.26,-9.2 -3.03,-18.35 -3.76,-27.59 -0.74,-9.45 -0.55,-18.97 -0.62,-28.46 -0.04,-5.37 0.01,-10.76 0.44,-16.11 0.26,-3.24 -1.25,-4.36 -3.92,-4.41 -4.02,-0.07 -8.04,0.16 -12.06,0.27 -3.12,0.09 -6.26,0.53 -9.34,0.23 -4.65,-0.45 -8.02,-4.91 -7.45,-9.55 0.1,-0.85 1.1,-1.86 1.94,-2.31 5.63,-3.03 11.73,-4.5 18.08,-4.27 7.82,0.28 15.61,1.14 23.43,1.43 9.2,0.35 17.48,-2.17 24.13,-8.89 0.62,-0.63 1.45,-1.32 1.6,-2.09 1.22,-6.45 2.31,-12.93 3.55,-20.06 -6.1,0 -11.67,0.05 -17.24,-0.01 -14.77,-0.16 -29.54,-0.34 -44.31,-0.59 -2.11,-0.04 -4.26,-0.26 -6.3,-0.78 -4.55,-1.14 -6.04,-3.8 -4.48,-8.27 0.41,-1.17 1.84,-2.47 3.05,-2.8 9.6,-2.62 19.44,-2.65 29.31,-2.52 13.22,0.17 26.42,0.04 39.88,0.04 z"
       id="path3" />
  </g>
</svg>
